<?xml version="1.0" encoding="UTF-8" standalone="no"?>
<!-- Created with Inkscape (http://www.inkscape.org/) -->

<svg
   xmlns:dc="http://purl.org/dc/elements/1.1/"
   xmlns:cc="http://creativecommons.org/ns#"
   xmlns:rdf="http://www.w3.org/1999/02/22-rdf-syntax-ns#"
   xmlns:svg="http://www.w3.org/2000/svg"
   xmlns="http://www.w3.org/2000/svg"
   xmlns:sodipodi="http://sodipodi.sourceforge.net/DTD/sodipodi-0.dtd"
   xmlns:inkscape="http://www.inkscape.org/namespaces/inkscape"
   width="575"
   height="500"
   viewBox="0 0 152.13545 132.29167"
   version="1.1"
   id="svg8"
   inkscape:version="0.92.3 (2405546, 2018-03-11)"
   sodipodi:docname="carthage-short-padded.svg">
  <defs
     id="defs2" />
  <sodipodi:namedview
     id="base"
     pagecolor="#ffffff"
     bordercolor="#666666"
     borderopacity="1.0"
     inkscape:pageopacity="0.0"
     inkscape:pageshadow="2"
     inkscape:zoom="2.8284271"
     inkscape:cx="441.66518"
     inkscape:cy="206.00932"
     inkscape:document-units="px"
     inkscape:current-layer="layer1"
     showgrid="false"
     units="px"
     inkscape:window-width="3840"
     inkscape:window-height="2121"
     inkscape:window-x="3840"
     inkscape:window-y="0"
     inkscape:window-maximized="1"
     showguides="true"
     inkscape:guide-bbox="true"
     guidetolerance="20"
     gridtolerance="10">
    <sodipodi:guide
       position="66.015571,53.988446"
       orientation="1,0"
       id="guide838"
       inkscape:locked="false" />
    <sodipodi:guide
       position="90.470732,65.88194"
       orientation="0,1"
       id="guide840"
       inkscape:locked="false" />
    <sodipodi:guide
       position="116.12861,81.116304"
       orientation="0,1"
       id="guide850"
       inkscape:locked="false" />
    <sodipodi:guide
       position="143.52373,107.70962"
       orientation="0,1"
       id="guide852"
       inkscape:locked="false" />
    <sodipodi:guide
       position="116.44147,104.57656"
       orientation="1,0"
       id="guide909"
       inkscape:locked="false" />
    <sodipodi:guide
       position="123.34544,102.22012"
       orientation="1,0"
       id="guide911"
       inkscape:locked="false" />
    <sodipodi:guide
       position="259.42395,69.453126"
       orientation="1,0"
       id="guide919"
       inkscape:locked="false" />
    <sodipodi:guide
       position="132.41203,66.930973"
       orientation="1,0"
       id="guide863"
       inkscape:locked="false" />
    <sodipodi:guide
       position="136.75654,95.944534"
       orientation="1,0"
       id="guide865"
       inkscape:locked="false" />
    <sodipodi:guide
       position="144.36331,98.921096"
       orientation="0,1"
       id="guide867"
       inkscape:locked="false" />
    <sodipodi:guide
       position="141.18831,32.907553"
       orientation="0,1"
       id="guide869"
       inkscape:locked="false" />
  </sodipodi:namedview>
  <metadata
     id="metadata5">
    <rdf:RDF>
      <cc:Work
         rdf:about="">
        <dc:format>image/svg+xml</dc:format>
        <dc:type
           rdf:resource="http://purl.org/dc/dcmitype/StillImage" />
        <dc:title></dc:title>
      </cc:Work>
    </rdf:RDF>
  </metadata>
  <g
     inkscape:label="Layer 1"
     inkscape:groupmode="layer"
     id="layer1"
     transform="translate(0,-164.70832)">
    <path
       sodipodi:nodetypes="cccszccccccczscc"
       inkscape:connector-curvature="0"
       id="path861"
       d="m 68.422007,181.65569 c -27.098798,-4e-5 -49.066726,21.96789 -49.066682,49.06669 -4.5e-5,27.0988 21.967884,49.06673 49.066682,49.06668 14.87664,-0.0416 28.882275,-6.8265 38.134883,-18.36161 0.52181,-0.65053 0.76112,-1.09491 1.83768,-1.60309 1.07655,-0.50819 3.38079,-0.39346 3.38079,-0.39346 h 20.6373 l -6.3e-4,-22.82497 0,-5.96796 -3e-5,-5.21811 6.3e-4,-22.82537 h -20.64614 c 0,0 -1.43708,0.11073 -2.81415,-0.58355 -1.37707,-0.69429 -1.68249,-1.24748 -2.38899,-2.12223 -9.269185,-11.47677 -23.269115,-18.22475 -38.141373,-18.23302 z"
       style="opacity:1;fill:#1b1b1b;fill-opacity:1;stroke:#1b1b1b;stroke-width:16.16921864;stroke-miterlimit:4;stroke-dasharray:none;stroke-opacity:1" />
    <path
       style="opacity:1;fill:#cd1818;fill-opacity:1;stroke:none;stroke-width:0.47940472;stroke-miterlimit:4;stroke-dasharray:none;stroke-opacity:1"
       d="m 68.422007,181.65569 c -27.098798,-4e-5 -49.066726,21.96789 -49.066682,49.06669 -4.5e-5,27.0988 21.967884,49.06673 49.066682,49.06668 14.87664,-0.0416 28.882275,-6.8265 38.134883,-18.36161 0.52181,-0.65053 0.76112,-1.09491 1.83768,-1.60309 1.07655,-0.50819 3.38079,-0.39346 3.38079,-0.39346 h 20.6373 l -7.20233,-22.82497 h -13.43287 l -0.0324,4.71715 h 4.52217 v -4e-4 H 95.959448 c -4.406142,11.36382 -15.336032,18.85767 -27.524154,18.87135 -16.323312,-1.3e-4 -29.555939,-13.23275 -29.556063,-29.55606 -9.2e-5,-16.32347 13.232598,-29.55634 29.556063,-29.55646 12.481635,0.0132 23.609519,7.86584 27.805105,19.6212 h 20.201081 v -4e-4 h -4.69645 l 0.0324,4.71755 h 13.43287 l 7.20233,-22.82537 h -20.64614 c 0,0 -1.43708,0.11073 -2.81415,-0.58355 -1.37707,-0.69429 -1.68249,-1.24748 -2.38899,-2.12223 -9.269185,-11.47677 -23.269115,-18.22475 -38.141373,-18.23302 z"
       id="path815"
       inkscape:connector-curvature="0"
       sodipodi:nodetypes="cccszccccccccccccccccccczsc" />
    <circle
       style="opacity:1;fill:#cd1818;fill-opacity:1;stroke:none;stroke-width:0.07410275;stroke-miterlimit:4;stroke-dasharray:none;stroke-opacity:1"
       id="path913"
       cx="68.421982"
       cy="231.02156"
       r="14.379131" />
  </g>
</svg>
